<svg width="121" height="31" viewBox="0 0 121 31" fill="none" xmlns="http://www.w3.org/2000/svg">
<path d="M3.73362 9.37381H9.37686V12.2308H0V0.990417H9.17134V3.84742H3.73362V9.37381ZM3.47672 5.16079H8.5034V7.88987H3.47672V5.16079Z" fill="#0F2217"/>
<path d="M10.8411 12.2308V0.990417H13.9667L19.7041 7.83017H18.2569V0.990417H21.9648V12.2223H18.8392L13.1018 5.38253H14.549V12.2223H10.8411V12.2308Z" fill="#0F2217"/>
<path d="M29.6549 12.4867C28.7386 12.4867 27.8994 12.3417 27.1287 12.0602C26.358 11.7788 25.6901 11.3694 25.1335 10.8492C24.5683 10.329 24.1316 9.7064 23.8233 8.99002C23.515 8.27364 23.3523 7.4805 23.3523 6.61061C23.3523 5.74071 23.5064 4.9561 23.8233 4.23119C24.1316 3.51481 24.5769 2.89224 25.142 2.37201C25.7072 1.85177 26.3837 1.44241 27.163 1.16098C27.9422 0.87954 28.7986 0.734558 29.732 0.734558C30.8452 0.734558 31.8471 0.922182 32.7206 1.29743C33.594 1.67268 34.3219 2.20997 34.8871 2.90076L32.4551 5.03286C32.104 4.62349 31.7187 4.31647 31.2991 4.11179C30.888 3.90711 30.4256 3.79624 29.9204 3.79624C29.5008 3.79624 29.124 3.86447 28.7815 3.9924C28.4389 4.12032 28.1563 4.30795 27.9166 4.55527C27.6768 4.80259 27.497 5.09256 27.3685 5.44222C27.2401 5.78335 27.1715 6.17566 27.1715 6.61061C27.1715 7.0285 27.2401 7.41227 27.3685 7.76194C27.497 8.1116 27.6768 8.41009 27.9166 8.64889C28.1563 8.89621 28.4389 9.08383 28.7643 9.22029C29.0897 9.35674 29.458 9.42497 29.869 9.42497C30.2972 9.42497 30.7168 9.35674 31.1278 9.21176C31.5388 9.06678 31.967 8.81945 32.4294 8.46126L34.5531 11.0624C33.8681 11.5229 33.0803 11.8726 32.1982 12.1199C31.3333 12.3587 30.477 12.4867 29.6549 12.4867ZM31.2648 10.5763V6.30358H34.5703V11.0539L31.2648 10.5763Z" fill="#0F2217"/>
<path d="M34.9727 12.2308L39.9051 0.990417H43.6473L48.5798 12.2223H44.6492L41.0012 2.7899H42.4827L38.8433 12.2308H34.9727ZM37.9013 10.2693L38.869 7.54021H44.0584L45.026 10.2693H37.9013Z" fill="#0F2217"/>
<path d="M54.8739 12.4867C53.9576 12.4867 53.1184 12.3417 52.3477 12.0602C51.577 11.7788 50.9091 11.3694 50.3525 10.8492C49.7873 10.329 49.3506 9.7064 49.0423 8.99002C48.7254 8.26511 48.5713 7.47197 48.5713 6.61061C48.5713 5.74924 48.7254 4.9561 49.0423 4.23119C49.3506 3.51481 49.7958 2.89224 50.361 2.37201C50.9262 1.85177 51.6027 1.44241 52.382 1.16098C53.1612 0.87954 54.0176 0.734558 54.951 0.734558C56.0642 0.734558 57.0661 0.922182 57.9396 1.29743C58.813 1.67268 59.5409 2.20997 60.1061 2.90076L57.6741 5.03286C57.323 4.62349 56.9377 4.31647 56.5181 4.11179C56.107 3.90711 55.6446 3.79624 55.1394 3.79624C54.7198 3.79624 54.343 3.86447 54.0004 3.9924C53.6579 4.12032 53.3753 4.30795 53.1355 4.55527C52.8958 4.80259 52.7159 5.09256 52.5875 5.44222C52.459 5.78335 52.3905 6.17566 52.3905 6.61061C52.3905 7.0285 52.459 7.41227 52.5875 7.76194C52.7159 8.1116 52.8958 8.41009 53.1355 8.64889C53.3753 8.89621 53.6579 9.08383 53.9833 9.22029C54.3087 9.35674 54.6769 9.42497 55.088 9.42497C55.5162 9.42497 55.9358 9.35674 56.3468 9.21176C56.7578 9.06678 57.1946 8.81945 57.6484 8.46126L59.7721 11.0624C59.0871 11.5229 58.2992 11.8726 57.4172 12.1199C56.5523 12.3587 55.7045 12.4867 54.8739 12.4867ZM56.4838 10.5763V6.30358H59.7893V11.0539L56.4838 10.5763Z" fill="#0F2217"/>
<path d="M65.1584 9.37381H70.8017V12.2308H61.4163V0.990417H70.5876V3.84742H65.1584V9.37381ZM64.9015 5.16079H69.9282V7.88987H64.9015V5.16079Z" fill="#0F2217"/>
<path d="M72.2659 12.2308V0.990417H75.3915L79.9044 8.32482H78.2602L82.6446 0.990417H85.7703L85.8045 12.2223H82.3364L82.3021 6.19272H82.8502L79.853 11.2159H78.1746L75.049 6.19272H75.7255V12.2308H72.2659Z" fill="#0F2217"/>
<path d="M91.3796 9.37381H97.0229V12.2308H87.646V0.990417H96.8173V3.84742H91.3882V9.37381H91.3796ZM91.1227 5.16079H96.1494V7.88987H91.1227V5.16079Z" fill="#0F2217"/>
<path d="M98.4871 12.2308V0.990417H101.613L107.35 7.83017H105.903V0.990417H109.611V12.2223H106.485L100.748 5.38253H102.195V12.2223H98.4871V12.2308Z" fill="#0F2217"/>
<path d="M113.892 12.2308V3.93271H110.587V0.990417H121V3.92418H117.694V12.2223H113.892V12.2308Z" fill="#0F2217"/>
<path d="M0.0170898 30.3451V14.6614H5.32636V26.2429H12.4339V30.3451H0.0170898Z" fill="black"/>
<path d="M19.1133 26.3538V24.2984H25.7755V20.4863H19.1133V18.6527H26.7004V14.6614H13.8982V30.3451H26.9915V26.3538H19.1133Z" fill="black"/>
<path d="M36.5741 30.7032C34.1592 30.7032 32.2753 30.0551 30.9309 28.7502C29.5778 27.4539 28.9099 25.6289 28.9099 23.2836V14.6614H34.2192V23.13C34.2192 24.324 34.4333 25.1769 34.87 25.6715C35.3067 26.1747 35.889 26.422 36.6255 26.422C37.3791 26.422 37.9614 26.1747 38.3895 25.6715C38.8177 25.1683 39.0318 24.324 39.0318 23.13V14.6614H44.2469V23.2836C44.2469 25.6289 43.5703 27.4539 42.2259 28.7502C40.8729 30.0551 38.989 30.7032 36.5741 30.7032Z" fill="black"/>
<path d="M54.8138 30.7033C53.555 30.7033 52.3904 30.5071 51.3114 30.1063C50.241 29.714 49.3076 29.1426 48.5197 28.4177C47.7319 27.6842 47.1239 26.8229 46.6872 25.8165C46.2505 24.8187 46.0364 23.71 46.0364 22.499C46.0364 21.2879 46.2505 20.1878 46.6872 19.1814C47.1239 18.1836 47.7319 17.3137 48.5197 16.5803C49.3076 15.8468 50.241 15.284 51.3114 14.8917C52.3818 14.4994 53.5464 14.2947 54.8138 14.2947C56.3552 14.2947 57.7253 14.5676 58.9156 15.1049C60.1059 15.6422 61.0907 16.4182 61.87 17.4331L58.5217 20.4095C58.0593 19.8296 57.5455 19.3776 56.9803 19.0535C56.4151 18.7294 55.7815 18.5759 55.0793 18.5759C54.5226 18.5759 54.026 18.6697 53.5721 18.8488C53.1183 19.0279 52.7329 19.2923 52.4161 19.6334C52.0907 19.9746 51.8423 20.3925 51.6625 20.8786C51.4827 21.3647 51.3885 21.902 51.3885 22.499C51.3885 23.096 51.4827 23.6418 51.6625 24.1194C51.8423 24.6055 52.0907 25.0234 52.4161 25.3645C52.7415 25.7056 53.1268 25.97 53.5721 26.1491C54.026 26.3282 54.5226 26.422 55.0793 26.422C55.7815 26.422 56.4151 26.26 56.9803 25.9444C57.5455 25.6204 58.0593 25.1683 58.5217 24.5884L61.87 27.5648C61.0907 28.5626 60.1059 29.3387 58.9156 29.8845C57.7339 30.4304 56.3638 30.7033 54.8138 30.7033Z" fill="black"/>
<path d="M68.6353 26.3538V24.2984H75.289V20.4863H68.6353V18.6527H76.2138V14.6614H63.4116V30.3451H76.505V26.3538H68.6353Z" fill="black"/>
<path d="M78.5515 30.3451V14.6614H82.9188L88.0568 22.9168L93.0407 14.6614H97.408L97.4508 30.3451H92.6125L92.5697 21.919L89.1529 28.9293H86.8151L83.3984 21.919V30.3451H78.5515Z" fill="black"/>
<path d="M100.011 30.3451V14.6614H105.321V30.3451H100.011Z" fill="black"/>
<path d="M113.104 26.3538V24.2984H119.767V20.4863H113.104V18.6527H120.692V14.6614H107.889V30.3451H120.983V26.3538H113.104Z" fill="black"/>
</svg>
