<?xml version="1.0" encoding="utf-8"?>
<!-- Generator: Adobe Illustrator 24.3.0, SVG Export Plug-In . SVG Version: 6.00 Build 0)  -->
<svg version="1.1" id="Calque_1" xmlns="http://www.w3.org/2000/svg" xmlns:xlink="http://www.w3.org/1999/xlink" x="0px" y="0px"
	 viewBox="0 0 184.85 130.7" style="enable-background:new 0 0 184.85 130.7;" xml:space="preserve">
<style type="text/css">
	.st0{opacity:0;}
	.st1{fill:#010202;}
	.st2{fill:#1EA64C;}
	.st3{fill:#0F2217;}
	.st4{stroke:#FFFFFF;stroke-miterlimit:10;}
</style>
<g>
	<g class="st0">
		<path class="st1" d="M86.9,63.05c-13.32-1.61-23.88-11.15-25.65-23.83H86.9v-7.54H61.25C63.01,19,73.58,9.3,86.9,7.69v-7.92
			c-18.99,1.8-33.81,17.09-33.81,35.68S67.91,69.33,86.9,71.13V63.05z"/>
		<path class="st1" d="M118.19,39.14c-1.42,10.17-8.49,18.63-18.11,22.42V39.14V9.19V1.17v-1.48h-7.54v0.01v7.59v56.18v7.59
			c17.69-1.68,31.76-15.06,33.61-31.91H118.19z"/>
	</g>
	<g>
		<g>
			<path class="st2" d="M86.9,64.05c-13.32-1.61-23.88-11.15-25.65-23.83H86.9v-7.54H61.25C63.01,20,73.58,10.3,86.9,8.69V0.78
				c-18.99,1.8-33.81,17.09-33.81,35.68S67.91,70.33,86.9,72.13V64.05z"/>
			<path class="st2" d="M118.19,40.14c-1.42,10.17-8.49,18.63-18.11,22.42V40.14V10.19V2.17V0.69h-7.54V0.7v7.59v56.18v7.59
				c17.69-1.68,31.76-15.06,33.61-31.91H118.19z"/>
		</g>
	</g>
</g>
<g>
	<g>
		<path class="st3" d="M25.84,105.51h6.59v3.35H21.47V95.69h10.71v3.35h-6.34V105.51z M25.54,100.58h5.87v3.2h-5.87V100.58z"/>
		<path class="st3" d="M34.14,108.86V95.69h3.65l6.7,8.02H42.8v-8.02h4.33v13.17h-3.65l-6.7-8.02h1.69v8.02H34.14z"/>
		<path class="st3" d="M56.1,109.16c-1.07,0-2.05-0.17-2.95-0.5c-0.9-0.33-1.68-0.81-2.33-1.42c-0.66-0.61-1.17-1.34-1.53-2.18
			c-0.36-0.84-0.55-1.77-0.55-2.79c0-1.02,0.18-1.94,0.55-2.79c0.36-0.84,0.88-1.57,1.54-2.18c0.66-0.61,1.45-1.09,2.36-1.42
			c0.91-0.33,1.91-0.5,3-0.5c1.3,0,2.47,0.22,3.49,0.66c1.02,0.44,1.87,1.07,2.53,1.88l-2.84,2.5c-0.41-0.48-0.86-0.84-1.35-1.08
			c-0.48-0.24-1.02-0.37-1.61-0.37c-0.49,0-0.93,0.08-1.33,0.23c-0.4,0.15-0.73,0.37-1.01,0.66c-0.28,0.29-0.49,0.63-0.64,1.04
			c-0.15,0.4-0.23,0.86-0.23,1.37c0,0.49,0.08,0.94,0.23,1.35c0.15,0.41,0.36,0.76,0.64,1.04c0.28,0.29,0.61,0.51,0.99,0.67
			c0.38,0.16,0.81,0.24,1.29,0.24c0.5,0,0.99-0.08,1.47-0.25c0.48-0.17,0.98-0.46,1.52-0.88l2.48,3.05
			c-0.8,0.54-1.72,0.95-2.75,1.24C58.07,109.02,57.07,109.16,56.1,109.16z M57.98,106.92v-5.01h3.86v5.57L57.98,106.92z"/>
		<path class="st3" d="M62.31,108.86l5.76-13.17h4.37l5.76,13.17h-4.59L69.35,97.8h1.73l-4.25,11.07H62.31z M65.74,106.57l1.13-3.2
			h6.06l1.13,3.2H65.74z"/>
		<path class="st3" d="M85.56,109.16c-1.07,0-2.05-0.17-2.95-0.5c-0.9-0.33-1.68-0.81-2.33-1.42c-0.66-0.61-1.17-1.34-1.53-2.18
			c-0.36-0.84-0.55-1.77-0.55-2.79c0-1.02,0.18-1.94,0.55-2.79c0.36-0.84,0.88-1.57,1.54-2.18c0.66-0.61,1.45-1.09,2.36-1.42
			c0.91-0.33,1.91-0.5,3-0.5c1.3,0,2.47,0.22,3.49,0.66c1.02,0.44,1.87,1.07,2.53,1.88l-2.84,2.5c-0.41-0.48-0.86-0.84-1.35-1.08
			c-0.48-0.24-1.02-0.37-1.61-0.37c-0.49,0-0.93,0.08-1.33,0.23c-0.4,0.15-0.73,0.37-1.01,0.66c-0.28,0.29-0.49,0.63-0.64,1.04
			c-0.15,0.4-0.23,0.86-0.23,1.37c0,0.49,0.08,0.94,0.23,1.35c0.15,0.41,0.36,0.76,0.64,1.04c0.28,0.29,0.61,0.51,0.99,0.67
			c0.38,0.16,0.81,0.24,1.29,0.24c0.5,0,0.99-0.08,1.47-0.25c0.48-0.17,0.99-0.46,1.52-0.88l2.48,3.05
			c-0.8,0.54-1.72,0.95-2.75,1.24C87.52,109.02,86.52,109.16,85.56,109.16z M87.44,106.92v-5.01h3.86v5.57L87.44,106.92z"/>
		<path class="st3" d="M97.56,105.51h6.59v3.35H93.2V95.69h10.71v3.35h-6.34V105.51z M97.26,100.58h5.87v3.2h-5.87V100.58z"/>
		<path class="st3" d="M105.86,108.86V95.69h3.65l5.27,8.6h-1.92l5.12-8.6h3.65l0.04,13.17h-4.05l-0.04-7.08h0.64l-3.5,5.89h-1.96
			l-3.65-5.89h0.79v7.08H105.86z"/>
		<path class="st3" d="M128.18,105.51h6.59v3.35h-10.95V95.69h10.71v3.35h-6.34V105.51z M127.88,100.58h5.87v3.2h-5.87V100.58z"/>
		<path class="st3" d="M136.48,108.86V95.69h3.65l6.7,8.02h-1.69v-8.02h4.33v13.17h-3.65l-6.7-8.02h1.69v8.02H136.48z"/>
		<path class="st3" d="M154.48,108.86v-9.73h-3.86v-3.44h12.16v3.44h-3.86v9.73H154.48z"/>
	</g>
	<g>
		<path class="st4" d="M21.5,130.11v-18.39h6.2v13.58H36v4.81H21.5z"/>
		<polygon class="st4" points="43.8,125.43 43.8,123.01 51.58,123.01 51.58,118.55 43.8,118.55 43.8,116.39 52.65,116.39 
			52.65,111.72 37.71,111.72 37.71,130.11 52.99,130.11 52.99,125.43 		"/>
		<path class="st4" d="M64.19,130.53c-2.82,0-5.02-0.76-6.59-2.29c-1.58-1.52-2.36-3.66-2.36-6.41v-10.11h6.2v9.93
			c0,1.4,0.25,2.4,0.76,2.98c0.51,0.59,1.19,0.88,2.05,0.88c0.88,0,1.56-0.29,2.06-0.88c0.5-0.59,0.75-1.58,0.75-2.98v-9.93h6.09
			v10.11c0,2.75-0.79,4.89-2.36,6.41C69.2,129.76,67.01,130.53,64.19,130.53z"/>
		<path class="st4" d="M85.49,130.53c-1.47,0-2.83-0.23-4.09-0.7c-1.25-0.46-2.34-1.13-3.26-1.98c-0.92-0.86-1.63-1.87-2.14-3.05
			c-0.51-1.17-0.76-2.47-0.76-3.89c0-1.42,0.25-2.71,0.76-3.89c0.51-1.17,1.22-2.19,2.14-3.05c0.92-0.86,2.01-1.52,3.26-1.98
			c1.25-0.46,2.61-0.7,4.09-0.7c1.8,0,3.4,0.32,4.79,0.95c1.39,0.63,2.54,1.54,3.45,2.73l-3.91,3.49c-0.54-0.68-1.14-1.21-1.8-1.59
			c-0.66-0.38-1.4-0.56-2.22-0.56c-0.65,0-1.23,0.11-1.76,0.32c-0.53,0.21-0.98,0.52-1.35,0.92c-0.38,0.4-0.67,0.89-0.88,1.46
			c-0.21,0.57-0.32,1.2-0.32,1.9c0,0.7,0.11,1.34,0.32,1.9c0.21,0.57,0.5,1.06,0.88,1.46c0.38,0.4,0.83,0.71,1.35,0.92
			c0.53,0.21,1.11,0.32,1.76,0.32c0.82,0,1.56-0.19,2.22-0.56c0.66-0.38,1.26-0.91,1.8-1.59l3.91,3.49
			c-0.91,1.17-2.06,2.08-3.45,2.72C88.89,130.21,87.29,130.53,85.49,130.53z"/>
		<polygon class="st4" points="101.62,125.43 101.62,123.01 109.4,123.01 109.4,118.55 101.62,118.55 101.62,116.39 110.47,116.39 
			110.47,111.72 95.53,111.72 95.53,130.11 110.82,130.11 110.82,125.43 		"/>
		<path class="st4" d="M113.21,130.11v-18.39h5.1l6,9.68l0,0l5.82-9.68h5.1l0.05,18.39h-5.65l-0.05-9.88l0,0l-3.99,8.22h-2.73
			l-3.99-8.22l0,0v9.88H113.21z"/>
		<path class="st4" d="M138.27,130.11v-18.39h6.2v18.39H138.27z"/>
		<polygon class="st4" points="153.56,125.43 153.56,123.01 161.33,123.01 161.33,118.55 153.56,118.55 153.56,116.39 
			162.41,116.39 162.41,111.72 147.46,111.72 147.46,130.11 162.75,130.11 162.75,125.43 		"/>
	</g>
</g>
</svg>
